<?xml version="1.0" standalone="no"?>
<!DOCTYPE svg PUBLIC "-//W3C//DTD SVG 20010904//EN"
 "http://www.w3.org/TR/2001/REC-SVG-20010904/DTD/svg10.dtd">
<svg version="1.0" xmlns="http://www.w3.org/2000/svg"
 width="600.000000pt" height="600.000000pt" viewBox="0 0 600.000000 600.000000"
 preserveAspectRatio="xMidYMid meet">
<metadata>
Created by potrace 1.14, written by Peter Selinger 2001-2017
</metadata>
<g transform="translate(0.000000,600.000000) scale(0.100000,-0.100000)"
fill="#000000" stroke="none">
<path d="M2987 5344 c-1 -1 -58 -4 -127 -8 -149 -7 -192 -12 -330 -41 -79 -16
-215 -51 -240 -62 -8 -3 -22 -7 -30 -9 -81 -17 -394 -165 -497 -235 -24 -16
-48 -29 -53 -29 -4 0 -10 -3 -12 -7 -1 -5 -25 -23 -53 -42 -133 -91 -316 -258
-413 -376 -31 -38 -64 -77 -72 -85 -8 -9 -22 -27 -30 -40 -8 -12 -20 -28 -25
-34 -23 -26 -114 -165 -141 -216 -16 -30 -32 -56 -36 -58 -5 -2 -8 -8 -8 -13
0 -5 -20 -51 -44 -101 -59 -125 -70 -155 -110 -283 -51 -166 -86 -335 -101
-495 -7 -72 -7 -342 0 -405 2 -22 7 -66 10 -97 6 -69 38 -226 66 -328 45 -167
94 -291 174 -446 54 -107 165 -287 185 -304 3 -3 17 -21 30 -40 13 -19 29 -40
35 -46 5 -7 26 -31 45 -55 108 -134 314 -318 481 -430 130 -88 119 -81 259
-151 153 -77 176 -87 315 -132 309 -100 563 -132 904 -113 68 4 126 9 130 11
3 2 29 6 56 10 28 3 100 17 160 31 61 15 115 27 120 28 6 2 16 6 23 10 6 5 12
6 12 3 0 -5 142 42 210 70 107 45 333 166 425 229 230 157 424 343 582 559 29
39 56 76 61 81 5 6 32 50 60 98 197 333 304 673 329 1047 35 530 -107 1053
-404 1483 -164 239 -373 446 -612 611 -339 234 -764 382 -1155 402 -56 3 -118
7 -139 8 -20 1 -38 2 -40 0z"/>
</g>
</svg>
